<svg id="Layer_1" data-name="Layer 1" xmlns="http://www.w3.org/2000/svg" viewBox="0 0 559.96 600.59"><defs><style>.cls-1{fill:#fff;}</style></defs><title>user</title><circle cx="281.53" cy="171.19" r="170.69"/><path d="M416.57,61a170.2,170.2,0,1,1-120.34,49.85A169,169,0,0,1,416.57,61m0-1A171.19,171.19,0,1,0,587.76,231.19,171.19,171.19,0,0,0,416.57,60Z" transform="translate(-135.04 -60)"/><circle class="cls-1" cx="340.96" cy="130.17" r="40.23"/><path d="M476,150.44a39.74,39.74,0,1,1-39.74,39.73A39.77,39.77,0,0,1,476,150.44m0-1a40.74,40.74,0,1,0,40.73,40.73A40.74,40.74,0,0,0,476,149.44Z" transform="translate(-135.04 -60)"/><path d="M413.85,386.07C280.4,386.07,168.09,501.75,135,658.89l558,1.7C660.42,502.58,547.79,386.07,413.85,386.07Z" transform="translate(-135.04 -60)"/><polygon class="cls-1" points="482.3 202.74 375.8 200.8 559.96 275.64 482.3 202.74"/></svg>